<svg id="Layer_1" data-name="Layer 1" xmlns="http://www.w3.org/2000/svg" viewBox="0 0 1733.97 281.26"><defs><style>.cls-1{font-size:69.04px;font-family:ArialNova, Arial Nova;}.cls-2{letter-spacing:-0.01em;}.cls-3{letter-spacing:-0.02em;}.cls-4{letter-spacing:0.03em;}</style></defs><path d="M460,107.5q-8.09-10.57-23.36-15a41.66,41.66,0,0,0,17.08-13.29q6.33-8.53,6.34-21,0-22.86-14-33.09T409.46,14.91H372.18V43h30.49q10.86,0,17.82,3.9t7,15.1q0,9.39-6.17,14.14t-18.15,4.75H372.18v28.06h30.49q16.86,0,23.82,5.88t6.95,16.74q0,8.94-4.47,13.63a20.89,20.89,0,0,1-11,6.11,68.83,68.83,0,0,1-14.54,1.41H372.18v28.06h37.05q25,0,41.92-11.6t16.91-36.59Q468.06,118.09,460,107.5Z"/><path d="M509.56,180.75V14.91h33.37V180.75Z"/><path d="M650.38,83.24h.45q4.53-9.73,12.22-23.53l24.89-44.8H726.4l-59.73,96.38v69.46H633.3V111.06L573.69,14.91h39.14l25.33,44.68Q645.53,72.49,650.38,83.24Z"/><path d="M739.06,98.73q0-26.24,9.89-45.75a71.69,71.69,0,0,1,28.23-30.21q18.32-10.68,42.76-10.69t42.87,10.64a71.75,71.75,0,0,1,28.28,30.09q10,19.45,10,45.25,0,25.11-9.79,44.51a72,72,0,0,1-28,30.2q-18.21,10.81-42.87,10.81t-43.1-10.69a71.8,71.8,0,0,1-28.34-30Q739.05,123.62,739.06,98.73Zm80.88-57.91q-14.25,0-24.72,7.29a46.23,46.23,0,0,0-16,20.19q-5.54,12.9-5.54,29.53t5.43,29.52a45.32,45.32,0,0,0,15.95,20.2q10.51,7.29,25.11,7.29,14.37,0,24.83-7.24a45.16,45.16,0,0,0,16-20.25q5.49-13,5.49-30,0-16.29-5.49-29.13a45.78,45.78,0,0,0-16-20.14Q834.54,40.82,819.94,40.82Z"/><path d="M1042.55,14.91h31.11V180.75h-33.6L973.43,72.6V180.75H942.32V14.91h32.47l67.76,110.75Z"/><path d="M1261.42,99.07q0,38-18.15,59.85t-56,21.83H1122.4V14.91h65.16Q1261.42,14.91,1261.42,99.07Zm-34.61-1q0-20.48-4.64-32.47t-14.31-17.31Q1198.19,43,1182.13,43h-26.36V152.69h26.81q16.62,0,26.19-5.14t13.8-17Q1226.82,118.76,1226.81,98.06Z"/><polygon points="1429.85 143.23 1394 143.23 1408.36 180.75 1444.89 180.75 1429.85 143.23"/><path d="M1419.29,116.91l-40.91-102h-33.15l-39.72,102Zm-65.46-39.22a137.74,137.74,0,0,0,7-27.15h.91a102.49,102.49,0,0,0,2.77,12.34q2.1,7.58,4.81,14.81l13.91,37.45h-43.1Z"/><polygon points="1295.26 143.23 1280.64 180.75 1316.28 180.75 1329.95 143.23 1295.26 143.23"/><polygon points="1718.92 143.23 1683.08 143.23 1697.43 180.75 1733.97 180.75 1718.92 143.23"/><path d="M1708.36,116.91l-40.91-102h-33.14l-39.73,102ZM1642.9,77.69a138.47,138.47,0,0,0,7-27.15h.9a106.55,106.55,0,0,0,2.77,12.34q2.1,7.58,4.81,14.81l13.92,37.45h-43.1Z"/><polygon points="1584.33 143.23 1569.71 180.75 1605.35 180.75 1619.02 143.23 1584.33 143.23"/><path d="M1528.14,43V180.75h-33.37V43h-48V14.91h129.3V43Z"/><rect x="325.66" y="12.08" width="3.35" height="254.26"/><text class="cls-1" transform="translate(367.97 262.81)">Str<tspan class="cls-2" x="90.21" y="0">at</tspan><tspan x="145.39" y="0">egic Business </tspan><tspan class="cls-3" x="585.7" y="0">P</tspan><tspan x="627.23" y="0">a</tspan><tspan class="cls-4" x="663.33" y="0">r</tspan><tspan x="690.6" y="0">tner</tspan></text><path d="M-13.75,48.22h147.5a15.39,15.39,0,0,1,15.39,15.39V83.22a0,0,0,0,1,0,0H-13.75a0,0,0,0,1,0,0v-35A0,0,0,0,1-13.75,48.22Z" transform="translate(-26.46 71.68) rotate(-47.77)"/><rect x="61" y="124.75" width="162.89" height="35" transform="translate(-58.62 152.12) rotate(-47.77)"/><path d="M144.32,191.69H307.21a0,0,0,0,1,0,0V211.3a15.39,15.39,0,0,1-15.39,15.39H144.32a0,0,0,0,1,0,0v-35A0,0,0,0,1,144.32,191.69Z" transform="translate(-80.87 235.77) rotate(-47.77)"/><path d="M136.69,131.62h128.8a9.62,9.62,0,0,1,9.62,9.62v24.51a9.62,9.62,0,0,1-9.62,9.62H136.69a0,0,0,0,1,0,0V131.62a0,0,0,0,1,0,0Z" transform="translate(-46.14 202.79) rotate(-47.77)"/><path d="M57.29,59.55h128.8a9.62,9.62,0,0,1,9.62,9.62V93.68a9.62,9.62,0,0,1-9.62,9.62H57.29a0,0,0,0,1,0,0V59.55a0,0,0,0,1,0,0Z" transform="translate(-18.81 120.37) rotate(-47.77)"/><polygon points="225.28 49.15 219.77 77.49 214.26 105.82 192.47 86.88 170.69 67.94 197.99 58.54 225.28 49.15"/></svg>