<svg id="Layer_1" data-name="Layer 1" xmlns="http://www.w3.org/2000/svg" viewBox="0 0 302.22 296.07"><path d="M-14.45,51H141.43a15.39,15.39,0,0,1,15.39,15.39V87.83a0,0,0,0,1,0,0H-14.45a0,0,0,0,1,0,0V51A0,0,0,0,1-14.45,51Z" transform="translate(-28.07 75.48) rotate(-47.77)"/><rect x="64.14" y="131.5" width="171.27" height="36.81" transform="translate(-61.89 160.06) rotate(-47.77)"/><path d="M151.75,201.89H323a0,0,0,0,1,0,0V223.3a15.39,15.39,0,0,1-15.39,15.39H151.75a0,0,0,0,1,0,0V201.89A0,0,0,0,1,151.75,201.89Z" transform="translate(-85.28 248.01) rotate(-47.77)"/><path d="M143.73,138.73H279.66a9.62,9.62,0,0,1,9.62,9.62v26.77a9.62,9.62,0,0,1-9.62,9.62H143.73a0,0,0,0,1,0,0v-46A0,0,0,0,1,143.73,138.73Z" transform="translate(-48.76 213.34) rotate(-47.77)"/><path d="M60.24,62.94H196.17a9.62,9.62,0,0,1,9.62,9.62V99.33a9.62,9.62,0,0,1-9.62,9.62H60.24a0,0,0,0,1,0,0v-46A0,0,0,0,1,60.24,62.94Z" transform="translate(-20.02 126.67) rotate(-47.77)"/><polygon points="236.88 52.01 231.09 81.8 225.29 111.6 202.39 91.68 179.48 71.76 208.18 61.88 236.88 52.01"/></svg>