<svg id="Layer_1" data-name="Layer 1" xmlns="http://www.w3.org/2000/svg" viewBox="0 0 1186.44 149.41"><defs><style>.cls-1{fill:#fff;}</style></defs><path class="cls-1" d="M76.49,83.13q-7-9.21-20.36-13.06A36.38,36.38,0,0,0,71,58.49q5.51-7.44,5.52-18.28,0-19.9-12.18-28.83T32.48,2.46H0V26.91H26.57q9.45,0,15.52,3.4t6.06,13.15q0,8.19-5.37,12.32T27,59.92H0V84.36H26.57q14.68,0,20.74,5.13t6.06,14.58q0,7.8-3.89,11.88a18.17,18.17,0,0,1-9.56,5.32,59.23,59.23,0,0,1-12.66,1.23H0V147H32.28q21.78,0,36.52-10.11T83.53,105A35,35,0,0,0,76.49,83.13Z"/><path class="cls-1" d="M119.69,147V2.46h29.07V147Z"/><path class="cls-1" d="M242.38,62h.39q3.94-8.48,10.65-20.5l21.68-39h33.51l-52,84V147H227.5V86.24L175.56,2.46h34.1l22.08,38.93Q238.15,52.63,242.38,62Z"/><path class="cls-1" d="M319.64,75.49q0-22.86,8.62-39.86A62.45,62.45,0,0,1,352.85,9.31Q368.81,0,390.1,0t37.36,9.26A62.61,62.61,0,0,1,452.1,35.48q8.67,17,8.67,39.42,0,21.88-8.53,38.78A62.75,62.75,0,0,1,427.85,140q-15.87,9.41-37.35,9.41T353,140.1A62.55,62.55,0,0,1,328.26,114Q319.64,97.18,319.64,75.49ZM390.1,25a36.69,36.69,0,0,0-21.53,6.36A40.21,40.21,0,0,0,354.62,49a64.63,64.63,0,0,0-4.83,25.73,65.69,65.69,0,0,0,4.74,25.72A39.4,39.4,0,0,0,368.42,118q9.16,6.36,21.88,6.36,12.51,0,21.63-6.31a39.49,39.49,0,0,0,13.9-17.64q4.79-11.34,4.78-26.12a64,64,0,0,0-4.78-25.38,40,40,0,0,0-13.9-17.54Q402.83,25,390.1,25Z"/><path class="cls-1" d="M584.05,2.46h27.1V147H581.88l-58-94.22V147h-27.1V2.46H525l59,96.49Z"/><path class="cls-1" d="M774.74,75.79q0,33.12-15.81,52.14t-48.84,19H653.62V2.46h56.77Q774.74,2.46,774.74,75.79Zm-30.15-.89q0-17.84-4.05-28.28T728.08,31.54q-8.43-4.63-22.42-4.63h-23V122.5h23.36q14.49,0,22.82-4.48t12-14.78Q744.58,92.94,744.59,74.9Z"/><polygon class="cls-1" points="921.48 114.26 890.25 114.26 902.76 146.95 934.59 146.95 921.48 114.26"/><path class="cls-1" d="M912.28,91.33,876.64,2.46H847.76L813.15,91.33Zm-57-34.17a120.42,120.42,0,0,0,6.11-23.65h.79a90.31,90.31,0,0,0,2.41,10.74q1.83,6.6,4.19,12.91l12.13,32.62H843.33Z"/><polygon class="cls-1" points="804.22 114.26 791.49 146.95 822.53 146.95 834.45 114.26 804.22 114.26"/><polygon class="cls-1" points="1173.33 114.26 1142.1 114.26 1154.61 146.95 1186.44 146.95 1173.33 114.26"/><path class="cls-1" d="M1164.13,91.33,1128.49,2.46h-28.88L1065,91.33Zm-57-34.17a120.42,120.42,0,0,0,6.11-23.65h.79a90.67,90.67,0,0,0,2.42,10.74q1.82,6.6,4.19,12.91l12.12,32.62h-37.55Z"/><polygon class="cls-1" points="1056.07 114.26 1043.34 146.95 1074.38 146.95 1086.3 114.26 1056.07 114.26"/><path class="cls-1" d="M1007.11,26.91V147H978v-120H936.25V2.46H1048.9V26.91Z"/></svg>