<svg id="Layer_1" data-name="Layer 1" xmlns="http://www.w3.org/2000/svg" viewBox="0 0 1480.75 239.26"><defs><style>.cls-1{fill:#0d2c35;}.cls-2{fill:#caa33a;}</style></defs><path class="cls-1" d="M392.8,124.29q-6.92-9-19.95-12.8a35.59,35.59,0,0,0,14.59-11.35q5.4-7.29,5.41-17.92,0-19.52-11.93-28.25t-31.25-8.75H317.83v24h26q9.27,0,15.21,3.33T365,85.41q0,8-5.27,12.08t-15.5,4.05H317.83v24h26q14.38,0,20.33,5t5.95,14.3q0,7.63-3.82,11.64a18,18,0,0,1-9.37,5.22,59,59,0,0,1-12.41,1.21H317.83v24h31.64q21.34,0,35.79-9.9t14.45-31.25A34.27,34.27,0,0,0,392.8,124.29Z"/><path class="cls-1" d="M435.15,186.84V45.22h28.49V186.84Z"/><path class="cls-1" d="M555.4,103.57h.39q3.87-8.31,10.43-20.09l21.26-38.26h32.84l-51,82.31v59.31h-28.5v-59.5L489.91,45.22h33.42L545,83.38Q551.25,94.39,555.4,103.57Z"/><path class="cls-1" d="M631.13,116.81q0-22.41,8.45-39.08a61.19,61.19,0,0,1,24.1-25.79q15.66-9.13,36.52-9.13t36.61,9.08A61.2,61.2,0,0,1,761,77.59q8.5,16.6,8.5,38.64,0,21.44-8.35,38A61.46,61.46,0,0,1,737.2,180q-15.56,9.22-36.61,9.23t-36.81-9.13a61.32,61.32,0,0,1-24.2-25.6Q631.14,138.06,631.13,116.81ZM700.2,67.35a36,36,0,0,0-21.11,6.23,39.4,39.4,0,0,0-13.67,17.24A63.43,63.43,0,0,0,660.69,116a64.56,64.56,0,0,0,4.64,25.22A38.61,38.61,0,0,0,679,158.49q9,6.22,21.44,6.23,12.27,0,21.21-6.18a38.81,38.81,0,0,0,13.62-17.29q4.68-11.12,4.68-25.6a62.82,62.82,0,0,0-4.68-24.88A39.18,39.18,0,0,0,721.6,73.58Q712.66,67.34,700.2,67.35Z"/><path class="cls-1" d="M890.3,45.22h26.57V186.84H888.18l-56.9-92.35v92.35H804.71V45.22h27.73L890.3,139.8Z"/><path class="cls-1" d="M1077.21,117.1q0,32.44-15.5,51.1t-47.87,18.64H958.49V45.22h55.64Q1077.22,45.22,1077.21,117.1Zm-29.56-.87q0-17.49-4-27.73t-12.22-14.78q-8.25-4.53-22-4.54H987v93.71h22.89q14.21,0,22.37-4.4T1044,144Q1047.66,133.91,1047.65,116.23Z"/><polygon class="cls-1" points="1221.04 154.8 1190.43 154.8 1202.69 186.84 1233.89 186.84 1221.04 154.8"/><path class="cls-2" d="M1212,132.33l-34.94-87.11h-28.3l-33.93,87.11Zm-55.9-33.49a118.54,118.54,0,0,0,6-23.19h.77a87.27,87.27,0,0,0,2.37,10.53q1.79,6.48,4.1,12.66l11.88,32h-36.8Z"/><polygon class="cls-1" points="1106.11 154.8 1093.63 186.84 1124.06 186.84 1135.73 154.8 1106.11 154.8"/><polygon class="cls-1" points="1467.9 154.8 1437.29 154.8 1449.55 186.84 1480.75 186.84 1467.9 154.8"/><path class="cls-2" d="M1458.89,132.33,1424,45.22h-28.31l-33.92,87.11ZM1403,98.84a118.54,118.54,0,0,0,6-23.19h.77a87.27,87.27,0,0,0,2.37,10.53q1.79,6.48,4.1,12.66l11.88,32h-36.8Z"/><polygon class="cls-1" points="1352.96 154.8 1340.48 186.84 1370.91 186.84 1382.59 154.8 1352.96 154.8"/><path class="cls-1" d="M1305,69.18V186.84h-28.5V69.18h-41v-24h110.42v24Z"/><rect class="cls-1" x="278.1" y="9.39" width="2.86" height="217.13"/><path class="cls-1" d="M-11.74,40.25H112a15.39,15.39,0,0,1,15.39,15.39v14.5a0,0,0,0,1,0,0H-11.74a0,0,0,0,1,0,0V40.25A0,0,0,0,1-11.74,40.25Z" transform="translate(-21.91 60.91) rotate(-47.77)"/><rect class="cls-1" x="52.09" y="105.6" width="139.1" height="29.89" transform="translate(-49.38 129.6) rotate(-47.77)"/><path class="cls-1" d="M123.25,162.77h139.1a0,0,0,0,1,0,0v14.5A15.39,15.39,0,0,1,247,192.66H123.25a0,0,0,0,1,0,0V162.77a0,0,0,0,1,0,0Z" transform="translate(-68.37 201.03) rotate(-47.77)"/><path class="cls-2" d="M116.73,111.47H225.32a9.62,9.62,0,0,1,9.62,9.62v18.13a9.62,9.62,0,0,1-9.62,9.62H116.73a0,0,0,0,1,0,0V111.47a0,0,0,0,1,0,0Z" transform="translate(-38.72 172.87) rotate(-47.77)"/><path class="cls-2" d="M48.92,49.93H157.51a9.62,9.62,0,0,1,9.62,9.62V77.67a9.62,9.62,0,0,1-9.62,9.62H48.92a0,0,0,0,1,0,0V49.93a0,0,0,0,1,0,0Z" transform="translate(-15.38 102.49) rotate(-47.77)"/><polygon class="cls-1" points="192.38 41.05 187.68 65.24 182.97 89.44 164.37 73.26 145.77 57.09 169.07 49.07 192.38 41.05"/></svg>