<svg id="Layer_1" data-name="Layer 1" xmlns="http://www.w3.org/2000/svg" viewBox="0 0 647.14 296.07"><defs><style>.cls-1{fill:#0d2c35;}.cls-2{fill:#caa33a;}</style></defs><path class="cls-1" d="M467.55,154.51Q459,143.39,443,138.75a43.92,43.92,0,0,0,18-14q6.66-9,6.66-22.06,0-24-14.69-34.79T414.44,57.15h-39.2v29.5h32.07q11.42,0,18.73,4.11t7.32,15.87q0,9.89-6.49,14.87t-19.09,5H375.24V156h32.07q17.71,0,25,6.18t7.31,17.61q0,9.39-4.7,14.33a22,22,0,0,1-11.54,6.42A71.53,71.53,0,0,1,408.14,202h-32.9v29.5h39q26.28,0,44.07-12.19t17.78-38.48Q476.06,165.64,467.55,154.51Z"/><path class="cls-2" d="M647.14,145.65q0,40-19.09,62.92t-58.94,23H501V57.15h68.51Q647.14,57.15,647.14,145.65Zm-36.39-1.07q0-21.53-4.88-34.14t-15-18.2q-10.17-5.58-27.06-5.59H536.05V202h28.19q17.47,0,27.53-5.41t14.51-17.84Q610.75,166.35,610.75,144.58Z"/><rect class="cls-1" x="338.23" y="13.03" width="3.52" height="267.36"/><path class="cls-1" d="M-14.45,51H141.43a15.39,15.39,0,0,1,15.39,15.39V87.83a0,0,0,0,1,0,0H-14.45a0,0,0,0,1,0,0V51A0,0,0,0,1-14.45,51Z" transform="translate(-28.07 75.48) rotate(-47.77)"/><rect class="cls-1" x="64.14" y="131.5" width="171.27" height="36.81" transform="translate(-61.89 160.06) rotate(-47.77)"/><path class="cls-1" d="M151.75,201.89H323a0,0,0,0,1,0,0V223.3a15.39,15.39,0,0,1-15.39,15.39H151.75a0,0,0,0,1,0,0V201.89A0,0,0,0,1,151.75,201.89Z" transform="translate(-85.28 248.01) rotate(-47.77)"/><path class="cls-2" d="M143.73,138.73H279.66a9.62,9.62,0,0,1,9.62,9.62v26.77a9.62,9.62,0,0,1-9.62,9.62H143.73a0,0,0,0,1,0,0v-46a0,0,0,0,1,0,0Z" transform="translate(-48.76 213.34) rotate(-47.77)"/><path class="cls-2" d="M60.24,62.94H196.17a9.62,9.62,0,0,1,9.62,9.62V99.33a9.62,9.62,0,0,1-9.62,9.62H60.24a0,0,0,0,1,0,0v-46a0,0,0,0,1,0,0Z" transform="translate(-20.02 126.67) rotate(-47.77)"/><polygon class="cls-1" points="236.88 52.01 231.09 81.8 225.29 111.6 202.39 91.68 179.48 71.76 208.18 61.88 236.88 52.01"/></svg>